<svg preserveAspectRatio="none" xmlns="http://www.w3.org/2000/svg" viewBox="0 0 1000 100">
    <path d="M146.5 27c.2 3.8-.6 6.7 0 6.8s1.7-2 2.3-4.2c1-3.5-.2-4.5.4-8.2a10.8 10.8 0 013.2-6.5c1.5-1.4 4.3-2.7 5.2-1.9s0 3-3 12.3a12.3 12.3 0 00-.7 3.5 8.6 8.6 0 00.2 2.5c.5 1.7 1.4 2.2 2.2 3.5 1 1.6.3 2.3.5 7.8.1 2.4.4 5.1.7 5.1s0-2 1-4.5 2.5-2.4 2.9-4.1c.4-2-1.1-2.6-1-5 .2-1.7 1-3.8 2.3-4s2.7 2 2.8 3.8c0 1.2-.6 1.4-.6 2.7 0 2 1.9 3.9 2.6 3.7s-.5-5.6 1-6.3c1-.4 2.9 1 3.6 2.7.8 2-.3 3.5-1 6.4a21.6 21.6 0 00-.1 9.3c.7 4.6 2.2 4.7 3.8 10.5 1.4 5 1.2 8.3 1.7 8.3s1.5-3.4 1.5-7c0-7.3-4-9.3-2.6-13.5 1.1-3.4 4-3 5.7-7.7.7-1.8.8-3.2 1-6 .4-7.6-1.5-9.5.1-12.4 1.3-2.5 4.5-4.7 7.4-4 3.4.7 4.8 5 4.9 7.6 0 2.2-.6 4.7-1.4 4.7-1.3 0-2.3-6.9-3-6.8-.6.1-.7 3-.5 5.3.2 3.5.9 3.4 2.6 10.3.5 2 .8 3.7 2 4s1.7-1 2.6-.7 1 1.7 1.3 3.7a26.8 26.8 0 01-.2 9.2c-.7 3.4-1.7 5.3-1.2 5.6.2.1.6.1 2.5-1.8 3.6-3.7 6.7-6.7 6.5-10.6-.1-2.7-1.6-3.3-1.2-6.3a13.1 13.1 0 011.2-3.8c1.5-3.3 3.2-5 3-5.3-.5-.5-5.2 4.4-6.7 3.4-1.2-.7.3-5 1.2-7.3 2.3-5.5 5.8-8.7 4.8-10-.4-.5-1-.1-1.6-.8-1.4-1.3-.5-5.2 1.7-7.6.6-.6 2.8-3 5.5-2.4a4.8 4.8 0 013.6 3.3c.8 2.8-2.5 4.4-3.2 8.7-.4 2.5.3 4.4 1.1 6.6 2 5.2 4.7 5.8 8.4 12.2 1.5 2.6 3.5 6.7 2.6 7.3-1 .8-6-4.1-6.5-3.6-.4.3 1.6 2 2.6 5 1.7 4.5-1.2 6.3 0 11.1 1 4 3.3 4 4 8.2s-1 7.5-.6 7.6 2.7-3.7 3.3-8.8c.8-5.4-1.1-6.5-.6-11 .7-6.7 5.3-6.3 6.2-12.6 1-6.2-3-9.4-.5-15.3.3-.6 1.3-3.1 2.6-3 1.4 0 2.3 3.7 2.6 4.8 1.7 7-.2 12.6.3 12.7s2.2-2.6 2.2-6.1c0-3.8-2-5.1-1.4-8.4.3-1.7 1.3-4 2.6-4 1.8-.2 4.3 4.2 5 8.5 1 6.6-2.6 9-1.7 16.6.4 4 1.9 7.5 2.5 7.4s-.4-5 1.2-11.1c2-7.5 5.4-7.1 6.3-12.5 1.2-7.6-5.1-11-3-17.6 1.2-3.4 4.2-6.5 6-6 2 .5 1.1 5.8 3.4 13.9 2.4 8.6 7 15.1 7.9 14.8s-2.8-6-1.8-14c.8-7 4.3-9.4 4.8-14.5l.2.5c1.3 5 2.2 5.2 2.4 8.6.2 2.9-.4 5 0 5.1s1.3-1.5 1.8-3.1c.7-2.6-.2-3.4.3-6.2a8 8 0 012.3-5c1.2-1 3.3-2 4-1.3s0 2.2-2.3 9.2a8.9 8.9 0 00-.5 2.7 6.5 6.5 0 00.1 1.8c.4 1.4 1.1 1.7 1.7 2.7.7 1.2.2 1.7.4 5.9 0 1.8.3 3.8.5 3.8s0-1.6.8-3.3 1.9-1.8 2.1-3.1c.3-1.5-.8-2-.6-3.8 0-1.3.7-2.9 1.6-3s2 1.5 2.1 2.8c0 1-.4 1.1-.4 2 0 1.5 1.4 3 2 2.8s-.5-4.2.7-4.7c.7-.3 2.2.7 2.7 2 .6 1.5-.3 2.7-.8 4.8a16.3 16.3 0 000 7c.6 3.5 1.7 3.6 2.9 8 1 3.8.8 6.2 1.3 6.2s1.1-2.5 1.1-5.1c0-5.6-3-7.1-2-10.3.9-2.5 3-2.3 4.3-5.8a13.8 13.8 0 00.7-4.5c.3-5.7-1.1-7.1.1-9.4 1-1.8 3.4-3.4 5.6-3 2.6.6 3.6 3.9 3.7 5.8 0 1.7-.5 3.5-1.1 3.5-1 0-1.7-5.2-2.3-5-.4 0-.4 2.1-.3 3.8.2 2.7.7 2.6 2 7.8.3 1.5.6 2.8 1.4 3s1.3-.7 2-.5.8 1.2 1 2.8a20 20 0 01-.2 6.9c-.5 2.5-1.3 4-.9 4.2.2.1.5.1 2-1.3 2.7-2.8 5-5 4.8-8 0-2-1.2-2.6-.9-4.8a9.8 9.8 0 011-2.8c1.2-2.6 2.5-3.8 2.2-4-.3-.4-3.9 3.3-5 2.6-.8-.6.2-3.9 1-5.6 1.6-4.1 4.3-6.5 3.5-7.5-.3-.4-.7-.1-1.2-.6-1-1-.4-4 1.3-5.7.4-.5 2-2.3 4.1-1.9a3.6 3.6 0 012.8 2.5c.5 2.2-2 3.3-2.4 6.6a9.2 9.2 0 00.8 5c1.5 3.9 3.6 4.4 6.3 9.2 1.2 2 2.6 5 2 5.5-.8.6-4.5-3.1-5-2.7-.2.2 1.3 1.5 2 3.7 1.3 3.5-.8 4.8 0 8.4.8 3 2.5 3 3 6.3s-.7 5.6-.4 5.6 2-2.8 2.5-6.6c.5-4-.9-4.9-.5-8.3.5-5 4-4.7 4.7-9.5s-2.2-7-.4-11.5c.2-.5 1-2.3 2-2.3s1.7 2.8 2 3.7c1.2 5.3-.3 9.5.1 9.6s1.7-2 1.8-4.7c0-2.8-1.5-3.8-1-6.3.1-1.2 1-3 2-3 1.3-.1 3.1 3.2 3.6 6.5.9 5-1.9 6.7-1.3 12.5.4 3 1.5 5.6 2 5.5s-.4-3.8.8-8.4c1.4-5.5 4-5.3 4.7-9.4 1-5.6-3.8-8.2-2.1-13.2.8-2.5 3-4.9 4.4-4.6 1.6.5.8 4.5 2.6 10.5 1.8 6.5 5.2 11.4 6 11.2s-2.2-4.5-1.5-10.6a19.3 19.3 0 012.5-7 9.6 9.6 0 011.3 3.3c.7 4.8-2.3 8.2-1.6 8.4s4.6-3.9 6.6-9c1.9-4.8 1.1-8 2.9-8.3 1.5-.3 4 1.5 5 3.6 1.8 4-3.5 6-2.5 10.5.7 3.2 3.7 3 5.3 7.5 1.4 3.7.4 6.7 1 6.7s1.7-2 2.1-4.4c.7-4.6-2.4-6-1.5-10 .6-2.6 2.7-5.2 4.2-5.2 1 0 2 1.5 2.2 2.5.5 2-1.2 2.7-1.2 5s1.6 3.7 1.9 3.7-1.2-3.4.2-7.6c.3-.8 1-3 2.3-3 1 0 1.9 1.5 2 1.8 2.2 3.6-1.1 5.5-.3 9.2s4.6 3.6 5.3 7.6c.4 2.7-1.2 3.3-.6 6.6.6 3 2.5 5.3 2.8 5.2s-1.2-2-.5-4.5 2.6-2.5 3.4-5c1-2.8-1.4-3.9 0-6.6.8-1.7 2.5-2.8 2.2-3-.5-.4-4.6 2.6-5.5 2.1-.7-.3.9-2.8 2.2-4.4 3.1-3.7 5.5-4.1 7.1-7.2a5.6 5.6 0 001-4c-.6-2.5-3.4-3.4-2.8-5.2a4 4 0 013.1-2 6.4 6.4 0 014.6 1.5c1.9 1.5 2.6 3.8 1.5 4.6-.6.4-1 .1-1.4.5-.9.8 2.1 2.7 4 6 .8 1.3 2 3.9 1 4.4-1.2.5-5.1-2.4-5.5-2.1-.3.2 1.2 1.2 2.5 3.2a6.5 6.5 0 011 2.3c.3 1.7-.9 2.1-1 3.7-.1 2.4 2.4 4.2 5.5 6.4 1.6 1.1 2 1.1 2 1 .5-.1-.3-1.3-1-3.3a11.4 11.4 0 010-5.5c0-1.2.3-2 1-2.2s1.4.5 2.2.4 1.2-1.2 1.7-2.4c1.4-4.1 2-4 2.1-6.2.2-1.3 0-3-.3-3.1-.7 0-1.5 4-2.6 4-.7 0-1.3-1.4-1.2-2.7a5 5 0 014.1-4.6 7.1 7.1 0 016.3 2.3c1.3 1.8-.3 3 0 7.5a8 8 0 00.8 3.6c1.5 2.8 4 2.6 4.9 4.6 1.1 2.6-2.2 3.7-2.2 8.2 0 2 .7 4 1.2 4S450 41 451 38c1.3-3.5 2.6-3.5 3.2-6.3a9.3 9.3 0 000-5.6c-.6-1.7-1.6-2.6-.9-3.8.6-1 2.2-1.9 3-1.6 1.3.4 0 3.6.9 3.7.6.2 2-1 2.1-2.2 0-.7-.5-.8-.4-1.6a2.6 2.6 0 012.3-2.2c1 0 1.8 1.3 1.9 2.3.2 1.5-1.1 1.8-.8 3s1.4 1 2.4 2.5.7 2.7 1 2.7.4-1.6.5-3c.2-3.4-.4-3.8.4-4.7.7-.8 1.5-1.1 1.8-2.2a3.7 3.7 0 00.2-1.4 5.7 5.7 0 00-.5-2.1c-2.6-5.6-3.3-7-2.6-7.4s3.1.3 4.4 1.1a5.7 5.7 0 012.6 4c.6 2.3-.4 2.9.4 5 .5 1.3 1.5 2.5 2 2.5s-.3-1.8 0-4.1c.2-2.7 1.2-2.9 2.7-6.8l.5-1.6a49.3 49.3 0 001 5.3c1.3 5 2.3 5.2 2.5 8.5.1 3-.5 5 0 5.2s1.2-1.5 1.7-3.2c.7-2.6-.2-3.3.3-6.2a7.9 7.9 0 012.4-4.9c1.2-1 3.3-2 4-1.4s0 2.3-2.3 9.3a9.2 9.2 0 00-.5 2.6 6.8 6.8 0 00.1 1.8c.4 1.4 1 1.7 1.7 2.7.7 1.2.2 1.7.4 5.9 0 1.8.2 3.8.5 3.8s0-1.6.8-3.3 1.9-1.8 2.1-3.2c.3-1.4-.8-1.9-.7-3.7.1-1.3.8-2.9 1.8-3s1.9 1.3 1.9 2.7c0 1-.5 1.1-.4 2 0 1.5 1.3 3 1.9 2.8s-.4-4.2.7-4.7c.7-.3 2.2.7 2.7 2 .6 1.5-.2 2.7-.8 4.8a16.5 16.5 0 000 7c.5 3.5 1.7 3.6 2.9 8 1 3.7.8 6.2 1.3 6.2s1-2.5 1-5.2c0-5.6-3-7-1.9-10.2.9-2.5 3-2.3 4.3-5.8a13.4 13.4 0 00.7-4.5c.3-5.7-1-7.2.1-9.4 1-1.8 3.5-3.5 5.6-3 2.6.6 3.6 3.8 3.7 5.8 0 1.6-.5 3.5-1 3.5-1 0-1.7-5.2-2.3-5.1-.4 0-.5 2.2-.3 4 .1 2.6.6 2.5 1.9 7.7.4 1.4.7 2.8 1.5 3s1.3-.7 2-.5.8 1.2 1 2.7a20 20 0 01-.2 7c-.5 2.5-1.3 4-.8 4.2 0 0 .4 0 1.8-1.4 2.8-2.7 5-5 5-8-.1-2-1.3-2.5-1-4.7a9.8 9.8 0 011-2.8c1.2-2.6 2.5-3.8 2.3-4s-4 3.3-5 2.5c-.9-.5.2-3.8.8-5.5 1.8-4.1 4.4-6.5 3.7-7.5-.3-.4-.8-.1-1.2-.6-1.1-1-.4-4 1.2-5.7.5-.5 2.1-2.3 4.2-1.9a3.7 3.7 0 012.7 2.5c.6 2.2-1.9 3.3-2.4 6.6a9.3 9.3 0 00.9 5c1.4 4 3.5 4.4 6.3 9.2 1.1 2 2.5 5 2 5.5-.9.6-4.5-3.1-5-2.7-.2.2 1.2 1.5 2 3.7 1.3 3.5-1 4.8 0 8.5.7 3 2.4 3 3 6.2s-.8 5.6-.5 5.6 2-2.8 2.5-6.6c.6-4-.9-5-.5-8.3.6-5 4-4.7 4.7-9.5s-2.2-7-.3-11.5c.2-.5 1-2.3 1.9-2.3 1 0 1.7 2.8 2 3.7 1.3 5.2-.2 9.4.2 9.5s1.6-2 1.6-4.6c0-2.8-1.5-3.8-1-6.3.2-1.3 1-3 2-3 1.4-.2 3.2 3.2 3.7 6.4.8 5-2 6.8-1.3 12.5.3 3 1.4 5.6 1.9 5.5s-.3-3.7.9-8.3c1.4-5.6 4-5.4 4.7-9.4 1-5.7-3.8-8.3-2.2-13.3.9-2.5 3.1-4.9 4.5-4.5 1.6.4.8 4.4 2.5 10.4a36.2 36.2 0 002.6 6.7v-12l.2.8c1.8 6.6 3 7 3.3 11.3.3 3.9-.5 6.7 0 6.9s1.7-2 2.3-4.2c1-3.5-.2-4.5.4-8.2a10.8 10.8 0 013.2-6.6c1.5-1.3 4.3-2.6 5.2-1.8s0 3-3 12.3a11.6 11.6 0 00-.7 3.5 8.6 8.6 0 00.2 2.4c.5 1.8 1.4 2.3 2.2 3.6 1 1.6.3 2.3.6 7.8 0 2.4.3 5.1.6 5.1s0-2.1 1.1-4.5 2.4-2.4 2.8-4.1c.4-2-1.1-2.6-1-5 .2-1.7 1-3.8 2.3-4s2.8 2 2.8 3.8c0 1.2-.6 1.4-.5 2.6 0 2 1.8 4 2.5 3.7s-.5-5.5 1-6.2c1-.4 2.9 1 3.6 2.7.8 2-.3 3.5-1 6.4a21.6 21.6 0 000 9.3c.7 4.6 2.2 4.7 3.8 10.5 1.3 5 1.2 8.2 1.7 8.3s1.5-3.4 1.5-7c0-7.3-4-9.3-2.6-13.5 1-3.4 4-3 5.7-7.7a18.6 18.6 0 001-6c.3-7.6-1.6-9.5 0-12.5 1.4-2.4 4.6-4.6 7.5-4 3.4.8 4.7 5.1 4.9 7.7 0 2.2-.7 4.7-1.4 4.7-1.4 0-2.3-6.9-3.1-6.8-.5.1-.6 3-.4 5.3.2 3.5.9 3.4 2.5 10.3.5 2 .9 3.7 2 4s1.7-1 2.6-.7 1.1 1.6 1.3 3.7a26.5 26.5 0 01-.2 9.2c-.7 3.4-1.7 5.3-1.2 5.6.2.1.6.1 2.5-1.8 3.7-3.7 6.7-6.7 6.5-10.6 0-2.7-1.6-3.3-1.2-6.3a13.1 13.1 0 011-3.9c1.5-3.3 3.2-5 3-5.3-.5-.5-5.2 4.4-6.7 3.4-1.2-.7.3-5 1.2-7.3 2.3-5.5 5.8-8.7 4.8-10-.4-.5-1-.1-1.6-.8-1.4-1.3-.5-5.2 1.7-7.6.6-.6 2.8-3 5.5-2.4a4.8 4.8 0 013.6 3.3c.8 2.8-2.5 4.4-3.2 8.7-.4 2.5.4 4.4 1.1 6.6 2 5.2 4.8 5.8 8.4 12.2 1.5 2.6 3.5 6.7 2.6 7.3-1 .8-6-4.1-6.5-3.6-.3.3 1.6 2 2.7 5 1.6 4.5-1.3 6.3-.1 11.1 1 4 3.3 4 4 8.2s-1 7.5-.6 7.6 2.6-3.7 3.3-8.8c.7-5.4-1.2-6.5-.7-11 .8-6.7 5.4-6.3 6.4-12.6 1-6.2-3-9.4-.5-15.3.3-.6 1.3-3 2.5-3 1.5 0 2.4 3.7 2.7 4.9 1.7 7-.3 12.5.2 12.7s2.3-2.7 2.3-6.2c0-3.8-2-5-1.4-8.4.3-1.7 1.3-4 2.6-4 1.8-.2 4.2 4.2 5 8.5 1 6.7-2.6 9-1.7 16.6.4 4 1.8 7.5 2.5 7.4s-.4-5 1.2-11.1c1.9-7.4 5.4-7.1 6.2-12.5 1.2-7.6-5.1-11-2.9-17.6 1.1-3.4 4.1-6.5 5.9-6 2 .5 1.2 5.8 3.4 13.9 2.4 8.6 7 15.1 7.9 14.8s-2.7-6-1.8-14c.8-7 4.3-9.4 4.9-14.5l.1.5c1.3 5 2.3 5.2 2.5 8.6.2 2.9-.4 5 0 5.1s1.2-1.5 1.7-3.1c.7-2.6-.2-3.4.3-6.2a7.8 7.8 0 012.4-5c1.2-1 3.2-2 4-1.4s0 2.2-2.4 9.2a9.2 9.2 0 00-.4 2.7 6.8 6.8 0 00.1 1.8c.4 1.4 1 1.7 1.6 2.7.8 1.2.3 1.7.5 5.9 0 1.8.2 3.8.4 3.8s0-1.6.9-3.3 1.8-1.8 2.1-3.1c.3-1.5-.9-2-.7-3.8.1-1.3.8-2.9 1.7-3s2 1.5 2.1 2.8c0 1-.4 1.1-.4 2 0 1.6 1.4 3 2 2.8s-.5-4.2.7-4.7c.7-.3 2.1.7 2.7 2 .6 1.5-.3 2.7-.8 4.8a16.3 16.3 0 00-.1 7c.6 3.5 1.7 3.6 2.9 8 1 3.8.9 6.2 1.3 6.2s1.1-2.5 1.1-5.1c0-5.6-3-7.1-2-10.3 1-2.5 3-2.3 4.4-5.8a13.3 13.3 0 00.7-4.5c.3-5.7-1.1-7.1 0-9.4 1-1.8 3.5-3.4 5.6-3 2.6.6 3.6 3.9 3.7 5.8.1 1.7-.4 3.5-1 3.5-1 0-1.7-5.2-2.3-5-.4 0-.5 2.1-.4 3.8.2 2.7.7 2.6 2 7.8.4 1.5.7 2.8 1.5 3s1.3-.7 2-.5.9 1.2 1 2.8a20 20 0 01-.1 6.9c-.6 2.5-1.3 4-1 4.2.2.1.6.1 2-1.3 2.7-2.8 5-5 4.9-8-.1-2-1.2-2.5-.9-4.8a9.8 9.8 0 011-2.8c1.2-2.5 2.4-3.8 2.2-4-.3-.4-3.9 3.3-5 2.6-.8-.6.2-3.9.9-5.6 1.7-4.1 4.4-6.5 3.6-7.5-.3-.4-.7-.1-1.2-.6-1-1-.4-4 1.3-5.7.4-.5 2-2.3 4.1-1.9a3.7 3.7 0 012.7 2.5c.6 2.2-1.9 3.3-2.4 6.6a9.4 9.4 0 00.9 5c1.4 3.9 3.5 4.4 6.3 9.2 1.1 2 2.6 5 2 5.5-.9.6-4.5-3.1-5-2.7-.2.2 1.3 1.5 2 3.7 1.3 3.5-.9 4.8 0 8.5.7 3 2.5 3 3 6.2s-.7 5.6-.5 5.6 2-2.8 2.6-6.6c.5-4-1-4.9-.6-8.2.6-5.1 4-4.8 4.8-9.6s-2.3-7-.4-11.5c.2-.4 1-2.3 1.9-2.3 1 0 1.8 2.8 2 3.7 1.3 5.3-.2 9.5.2 9.6s1.7-2 1.7-4.7c0-2.8-1.5-3.8-1-6.3.2-1.2 1-3 2-3 1.3-.1 3.2 3.2 3.7 6.5.8 5-2 6.7-1.3 12.5.3 3 1.4 5.6 1.9 5.5s-.3-3.8.8-8.4c1.5-5.5 4.1-5.3 4.8-9.4.9-5.6-3.9-8.2-2.2-13.2.9-2.5 3-4.9 4.4-4.6 1.6.5.9 4.5 2.6 10.5 1.8 6.5 5.3 11.4 6 11.2s-2-4.5-1.4-10.6a19.3 19.3 0 012.5-7 9.8 9.8 0 011.3 3.3c.7 4.8-2.3 8.2-1.6 8.4s4.7-3.7 6.7-8.9c1.9-4.8 1-8 2.8-8.3 1.5-.3 4 1.6 5 3.6 1.9 4-3.4 6-2.4 10.6.8 3.2 3.7 3 5.3 7.4 1.4 3.7.4 6.7 1 6.7s1.8-2 2.1-4.4c.7-4.5-2.3-6-1.4-10 .6-2.6 2.6-5.2 4.2-5.1 1 0 1.9 1.4 2.1 2.4.5 2-1.2 2.8-1.2 5s1.6 3.8 2 3.7-1.3-3.4.2-7.6c.2-.7 1-2.9 2.2-3 1 0 1.9 1.5 2.1 1.9 2.1 3.5-1.2 5.5-.4 9.2s4.7 3.5 5.3 7.5c.4 2.7-1.2 3.4-.6 6.6.6 3 2.5 5.4 2.8 5.3s-1.1-2-.5-4.5 2.6-2.6 3.4-5c1-2.9-1.4-4 0-6.7.8-1.7 2.5-2.7 2.2-3-.5-.3-4.6 2.7-5.5 2.2-.7-.4.9-2.8 2.2-4.4 3.1-3.8 5.5-4.2 7-7.3.7-1.3 1.3-2.5 1-4-.6-2.5-3.4-3.5-2.7-5.2a4 4 0 013-2 6.5 6.5 0 014.7 1.5c1.8 1.4 2.5 3.7 1.4 4.6-.6.3-1 .1-1.4.4-.8.8 2.1 2.7 4 6 .9 1.3 2 4 1 4.4-1.2.6-5.1-2.3-5.5-2-.3.1 1.2 1.1 2.5 3.1a6.2 6.2 0 011 2.3c.3 1.8-1 2.2-1 3.8-.2 2.3 2.4 4.1 5.4 6.3 1.6 1.2 2 1.2 2.1 1.1.5-.2-.4-1.3-1-3.4a11.3 11.3 0 01-.1-5.5c.1-1.2.4-2 1-2.2s1.4.5 2.3.4 1.2-1.2 1.6-2.4c1.4-4 2-4 2.2-6.1.1-1.4 0-3.1-.4-3.2-.6 0-1.5 4.1-2.6 4.1-.6 0-1.2-1.5-1.1-2.8a5 5 0 014-4.6 7.1 7.1 0 016.3 2.4c1.4 1.8-.2 2.9.1 7.4a8 8 0 00.6 3.7c1.5 2.8 3.9 2.6 4.8 4.6 1.2 2.6-2.2 3.7-2.2 8.2 0 2.1.8 4.1 1.3 4.1s.3-2 1.4-5c1.4-3.4 2.6-3.5 3.3-6.3a9.3 9.3 0 000-5.6c-.7-1.7-1.6-2.6-1-3.8.7-1 2.3-1.8 3-1.6 1.4.4.1 3.6 1 3.7.6.2 2-1 2-2.2 0-.7-.4-.8-.4-1.6a2.6 2.6 0 012.4-2.2c1 0 1.8 1.3 1.9 2.4.1 1.4-1.1 1.8-.8 3s1.4 1 2.4 2.4.7 2.7.9 2.7.4-1.6.5-3c.2-3.3-.3-3.7.5-4.7.6-.8 1.4-1 1.8-2.1a3.5 3.5 0 00.2-1.5 5.5 5.5 0 00-.5-2.1c-2.6-5.6-3.3-7-2.6-7.4s3 .3 4.4 1.1a5.8 5.8 0 012.6 4c.5 2.3-.5 2.9.3 5 .6 1.3 1.6 2.6 2 2.5s-.2-1.8 0-4.1c.2-2.6 1.3-2.8 2.7-6.8l.6-1.5a49.3 49.3 0 001 5.2c1.3 5 2.2 5.2 2.4 8.5.2 3-.4 5.1 0 5.2s1.3-1.5 1.8-3.1c.7-2.6-.2-3.4.3-6.2a7.8 7.8 0 012.3-5c1.2-1 3.3-2 4-1.4s0 2.3-2.3 9.3a9.6 9.6 0 00-.5 2.6 6.8 6.8 0 00.2 1.8c.3 1.4 1 1.7 1.6 2.7.7 1.2.3 1.7.5 5.9 0 1.8.2 3.9.4 3.9s0-1.6.9-3.4 1.8-1.8 2-3.1c.4-1.5-.8-2-.6-3.8.1-1.3.8-2.9 1.7-3s2 1.4 2 2.7c0 1-.5 1.2-.5 2 0 1.6 1.4 3 2 2.8s-.4-4.2.8-4.7c.7-.3 2.1.7 2.6 2 .7 1.5-.2 2.7-.8 4.8a16.5 16.5 0 000 7c.6 3.5 1.8 3.6 3 8 1 3.8.8 6.2 1.3 6.2s1-2.5 1-5.1c0-5.6-3-7.1-2-10.3 1-2.5 3-2.3 4.4-5.8a13.4 13.4 0 00.6-4.5c.4-5.7-1-7.1.1-9.4 1-1.8 3.5-3.4 5.6-3 2.6.6 3.6 3.9 3.7 5.8 0 1.6-.5 3.5-1 3.5-1 0-1.8-5.2-2.4-5-.3 0-.4 2.1-.3 3.8.2 2.7.7 2.6 2 7.8.4 1.5.7 2.8 1.5 3s1.3-.7 2-.5.8 1.2 1 2.8a20.2 20.2 0 01-.2 6.9c-.6 2.5-1.3 4-.9 4.2.1 0 .5.1 1.9-1.3 2.7-2.8 5-5 4.9-8 0-2-1.2-2.6-.9-4.8a9.8 9.8 0 011-2.8c1.1-2.6 2.4-3.8 2.2-4s-4 3.3-5 2.6c-.9-.6.2-3.9.9-5.6 1.7-4.1 4.4-6.5 3.6-7.5-.3-.4-.8-.1-1.2-.6-1-1-.4-3.9 1.2-5.7.5-.5 2.1-2.3 4.2-1.9a3.7 3.7 0 012.7 2.6c.6 2.1-1.9 3.3-2.4 6.5a9.2 9.2 0 00.9 5c1.4 4 3.5 4.4 6.3 9.2 1.1 2 2.6 5 2 5.5-.9.6-4.5-3.1-5-2.7-.2.3 1.3 1.6 2 3.7 1.3 3.5-1 4.8 0 8.5.7 3 2.5 3 3 6.2s-.7 5.6-.4 5.7 2-2.9 2.5-6.7c.5-4-1-4.9-.5-8.2.5-5.1 4-4.8 4.7-9.6s-2.2-7-.4-11.5c.2-.4 1-2.3 2-2.3 1 .1 1.7 2.8 2 3.7 1.2 5.3-.3 9.5.1 9.6s1.7-2 1.7-4.7c0-2.8-1.5-3.8-1-6.3.2-1.2 1-3 2-3 1.3-.1 3.2 3.2 3.7 6.4.8 5-2 6.8-1.3 12.5.3 3 1.4 5.6 1.9 5.6s-.3-3.8.8-8.4c1.5-5.6 4.1-5.3 4.8-9.4.9-5.7-3.8-8.2-2.2-13.2.9-2.6 3-5 4.4-4.6 1.6.4.9 4.4 2.6 10.5a35.5 35.5 0 002.6 6.6V.2H141V6c1.3 2.8.8 4.3 2.2 9.7 1.7 6.6 3 7 3.3 11.3z" />
    <path d="M0 37.2c1.7 1.1 2 1.1 2.2 1 .4-.1-.4-1.3-1-3.3a11.3 11.3 0 01-.2-5.5c.2-1.2.4-2 1.1-2.2s1.4.5 2.2.4 1.2-1.2 1.7-2.4c1.4-4.1 2-4 2.2-6.2.1-1.3 0-3-.4-3.1-.7 0-1.5 4.1-2.6 4.1-.7 0-1.3-1.5-1.2-2.8a5 5 0 014.1-4.6 7.2 7.2 0 016.2 2.3c1.4 1.8-.2 3 .2 7.5a8 8 0 00.8 3.6c1.4 2.8 3.8 2.6 4.8 4.6 1.1 2.6-2.2 3.7-2.2 8.2 0 2.1.7 4.1 1.2 4.1s.3-2 1.5-5c1.3-3.4 2.6-3.5 3.2-6.3a9.2 9.2 0 000-5.6c-.6-1.7-1.6-2.6-.9-3.8.6-1 2.2-1.9 3-1.6 1.3.4 0 3.6.9 3.7.6.1 2-1 2.1-2.2 0-.7-.5-.9-.4-1.6a2.5 2.5 0 012.3-2.2c1 0 1.8 1.3 1.9 2.3.2 1.5-1 1.8-.8 3s1.4 1 2.4 2.5.7 2.7 1 2.7.4-1.6.5-3.1c.2-3.3-.4-3.7.4-4.6.7-.8 1.5-1.1 1.9-2.2a4 4 0 00.1-1.5 5.4 5.4 0 00-.5-2C35 9.7 34.4 8.3 35 8s3.1.3 4.4 1.1a5.7 5.7 0 012.6 4c.6 2.3-.4 2.9.4 5 .5 1.3 1.5 2.5 2 2.5s-.3-1.8 0-4.1c.2-2.7 1.3-2.8 2.7-6.8l.5-1.6a49.3 49.3 0 001 5.3c1.3 5 2.3 5.2 2.5 8.5.2 3-.5 5.1 0 5.2s1.3-1.5 1.7-3.1c.7-2.7-.2-3.4.3-6.3a8 8 0 012.4-4.9c1.2-1 3.3-2 4-1.4s0 2.3-2.3 9.3a9.6 9.6 0 00-.5 2.6 7 7 0 00.1 1.8c.4 1.4 1.1 1.7 1.7 2.7.7 1.2.2 1.7.4 5.9 0 1.8.2 3.8.5 3.8s0-1.6.8-3.3 1.9-1.8 2.1-3.2-.9-1.9-.7-3.7c.1-1.3.8-2.9 1.8-3s1.9 1.3 1.9 2.7c0 .9-.5 1.1-.4 2 0 1.5 1.3 3 2 2.8s-.5-4.3.7-4.7c.7-.3 2.1.7 2.7 2 .6 1.5-.3 2.7-.8 4.8a16.3 16.3 0 000 7c.5 3.5 1.7 3.5 2.9 8 1 3.7.8 6.2 1.3 6.2s1.1-2.6 1.1-5.2c0-5.6-3-7-2-10.2.8-2.6 3-2.3 4.3-5.9a13.5 13.5 0 00.7-4.5c.3-5.7-1.1-7 0-9.3 1-1.9 3.5-3.5 5.7-3 2.5.6 3.5 3.8 3.6 5.8.1 1.6-.4 3.5-1 3.5-1 0-1.7-5.2-2.3-5.1-.4 0-.5 2.2-.3 3.9.1 2.7.6 2.6 2 7.8.3 1.4.6 2.8 1.4 3s1.3-.7 2-.5.9 1.2 1 2.7a20.2 20.2 0 01-.1 7c-.6 2.5-1.3 4-1 4.2.2 0 .6 0 2-1.4 2.7-2.7 5-5 4.9-8-.1-2-1.2-2.5-.9-4.7a9.5 9.5 0 011-2.9c1.1-2.5 2.4-3.7 2.2-4s-4 3.3-5 2.6c-.9-.6.2-3.8.8-5.5 1.8-4.1 4.4-6.5 3.7-7.5-.3-.4-.8-.2-1.2-.6-1.1-1-.4-4 1.2-5.7.5-.5 2.1-2.3 4.2-2a3.7 3.7 0 012.7 2.6c.6 2.2-1.9 3.3-2.4 6.6a9.2 9.2 0 00.9 5c1.4 3.9 3.5 4.3 6.3 9.1 1.1 2 2.5 5.1 2 5.6-.9.6-4.6-3.2-5-2.8-.3.3 1.2 1.6 2 3.7 1.3 3.5-1 4.8 0 8.5.8 3 2.5 3 3 6.2s-.7 5.6-.4 5.7 2-2.8 2.5-6.7c.5-4-1-4.9-.5-8.2.5-5 4-4.8 4.7-9.5s-2.2-7.1-.4-11.6c.2-.4 1-2.3 2-2.2 1 0 1.7 2.7 2 3.6 1.2 5.3-.3 9.5.1 9.6s1.7-2 1.7-4.7c0-2.8-1.5-3.8-1-6.3.2-1.2 1-3 2-3 1.3-.1 3.2 3.2 3.7 6.4.8 5-2 6.8-1.3 12.6.3 3 1.4 5.6 1.9 5.5s-.3-3.8.8-8.4c1.5-5.6 4.1-5.3 4.8-9.4.9-5.7-3.8-8.2-2.2-13.2.9-2.6 3-5 4.4-4.6 1.6.4.9 4.4 2.6 10.5a35 35 0 002.6 6.6V.2H-.1V37z" />
</svg>