<svg xmlns="http://www.w3.org/2000/svg" preserveAspectRatio="none" viewBox="0 0 1440 320">
    <path d="M0,64L0,96L57.6,96L57.6,224L115.2,224L115.2,32L172.8,32L172.8,320L230.4,320L230.4,96L288,96L288,256L345.6,256L345.6,192L403.2,192L403.2,288L460.8,288L460.8,128L518.4,128L518.4,256L576,256L576,288L633.6,288L633.6,224L691.2,224L691.2,256L748.8,256L748.8,224L806.4,224L806.4,160L864,160L864,128L921.6,128L921.6,64L979.2,64L979.2,288L1036.8,288L1036.8,192L1094.4,192L1094.4,224L1152,224L1152,64L1209.6,64L1209.6,288L1267.2,288L1267.2,128L1324.8,128L1324.8,64L1382.4,64L1382.4,160L1440,160L1440,0L1382.4,0L1382.4,0L1324.8,0L1324.8,0L1267.2,0L1267.2,0L1209.6,0L1209.6,0L1152,0L1152,0L1094.4,0L1094.4,0L1036.8,0L1036.8,0L979.2,0L979.2,0L921.6,0L921.6,0L864,0L864,0L806.4,0L806.4,0L748.8,0L748.8,0L691.2,0L691.2,0L633.6,0L633.6,0L576,0L576,0L518.4,0L518.4,0L460.8,0L460.8,0L403.2,0L403.2,0L345.6,0L345.6,0L288,0L288,0L230.4,0L230.4,0L172.8,0L172.8,0L115.2,0L115.2,0L57.6,0L57.6,0L0,0L0,0Z" />
</svg>