<svg preserveAspectRatio="none" xmlns="http://www.w3.org/2000/svg" viewBox="0 0 1000 92.5">
    <path d="M907 19c-55-5-97 5-109 8-44 12-44 24-101 44-36 12-63 21-97 20-46-1-81-20-100-33-19 13-54 32-100 33-34 1-61-8-97-20-57-20-57-32-101-44-12-3-54-13-109-8A306 306 0 000 43V0h1000v43a306 306 0 00-93-24z" />
    <path d="M50 38s76-32 155 2c0 0-65-21-155-2z" opacity=".5" />
    <path d="M80 46s47-20 95 1c0 0-40-13-95-1z" opacity=".3" />
    <path d="M801 38s76-32 155 2c0 0-65-21-155-2z" opacity=".5" />
    <path d="M831 46s47-20 95 1c0 0-40-13-95-1z" opacity=".3" /> 
</svg>