<svg xmlns="http://www.w3.org/2000/svg" preserveAspectRatio="none" viewBox="0 0 2000.4 70.7">
	<path d="M1837 0H0v9c8-5 20-1 24 7 3 5 5 12 10 12a7 7 0 007-4c2-3 1-8 0-12 3-2 7 0 8 3l1 10c-1 4-2 9 1 12a5 5 0 007 1c2-2 2-5 2-8 0-4 1-8 6-7a6 6 0 013 4 8 8 0 003 3 2 2 0 003-2c0-3-1-5 1-7a4 4 0 014-3c3 1 4 5 4 8-1 2-2 5-1 7a4 4 0 001 1c1 2 5 0 4-3a10 10 0 010-6 5 5 0 015-3c3-1 4 2 4 5l-2 6c-3 4-5 8-5 13s2 11 7 12c4 1 9-1 9-5 1-2 0-5-2-7l-1-3a19 19 0 013-20 7 7 0 017-2c4 1 5 6 4 10v11c1 4 7 5 8 1l2-9c3-3 8-6 11-2a7 7 0 012 5l-3 9-1 4c-2 4-2 9 2 11a7 7 0 008-1c4-3 5-9 3-13v-1c-1-4-4-8-3-13a9 9 0 0110-7c4 0 10 5 9 10v2a33 33 0 01-1 8 42 42 0 01-2 7c-2 4-2 10 2 14 3 3 7 5 11 3a8 8 0 005-5c2-6-3-11-6-17a10 10 0 010-2 13 13 0 012-10c6-7 16-2 17 5a15 15 0 011 5l-1 7c-1 4 1 10 6 9a7 7 0 006-5c1-4 0-8-2-11-2-4-4-7-3-11a8 8 0 012-6c4-4 11-1 15 2 5 4 10 8 15 6 4-1 6-4 7-7l7-11a7 7 0 016 0c5 1 5 6 4 10l-4 9c0 4 3 8 7 7a6 6 0 004-4c1-5-2-9-2-14 0-4 4-8 8-5a6 6 0 011 4 104 104 0 011 20l-1 10c1 6 8 9 12 5 3-3 4-8 4-12a23 23 0 00-1-3 50 50 0 00-3-9c-2-4-4-9-3-13 1-6 9-11 13-3a10 10 0 010 7c-1 4-1 12 5 13a6 6 0 005-3c3-5 1-9 2-14 1-3 4-6 8-6 4 1 7 5 7 9l2 13a10 10 0 005 6 6 6 0 005 0 6 6 0 001-1 7 7 0 003-4c1-5-2-9-3-14 0-3 1-8 4-9l2 9c3 4 8 6 12 2a8 8 0 001-3c2-4 1-7 0-11a18 18 0 0115 0l6 3a8 8 0 003 1 8 8 0 002-1c3 0 5-2 7-3a18 18 0 0115 0c-1 4-2 7-1 11a8 8 0 002 3c4 4 9 2 11-2l3-9c3 2 4 6 3 9 0 5-3 9-2 14a7 7 0 002 4c5 4 10 0 12-5l1-13c0-5 4-8 8-9 3 0 6 3 7 6 1 5 0 10 3 14a6 6 0 005 3c5-1 6-9 5-13a10 10 0 010-7c4-7 12-3 13 3 1 5-1 9-3 13s-4 8-4 12 1 9 4 12c4 4 11 1 11-5V26a6 6 0 012-4c3-3 8 1 8 5 0 5-3 9-2 14a6 6 0 004 4c4 1 7-3 6-7l-3-9c-1-4-1-9 3-10a7 7 0 016 0c4 3 6 7 7 11 2 3 4 6 7 7 6 2 11-2 15-5 5-4 11-7 16-3a8 8 0 012 6c0 8-7 14-6 22a7 7 0 006 6c5 0 7-6 7-10s-2-8-1-12c2-7 12-12 18-5a12 12 0 012 12c-3 6-9 12-7 17a8 8 0 005 5c5 2 9 0 12-3 4-4 4-9 2-14a37 37 0 01-3-15v-2c-1-5 4-10 9-10a9 9 0 0110 7c1 5-2 9-4 14-1 5 0 10 4 13a7 7 0 008 1c4-2 4-7 2-11-1-4-4-8-4-13a7 7 0 012-5c3-4 8-1 10 2s2 6 2 10c2 3 7 1 9-2s0-7-1-11c0-4 1-9 5-10a7 7 0 017 2 19 19 0 013 20c-2 4-4 7-4 10 1 5 6 7 10 5 5-1 7-7 7-12 0-4-3-9-5-12l-2-7c-1-2 1-6 4-5a5 5 0 014 3 10 10 0 010 6c-1 3 3 5 5 3a2 2 0 000-1v-7c0-3 0-7 3-7a4 4 0 015 2v7a2 2 0 004 2 8 8 0 003-3 6 6 0 013-4c4-1 6 3 6 7 0 3-1 6 2 8a5 5 0 007-1c2-3 2-8 1-12V15c1-3 6-5 8-3 0 4-1 8 1 12a7 7 0 007 4c5 0 7-7 9-12a13 13 0 0125 0c2 5 4 12 9 12a7 7 0 007-4c2-4 1-8 1-12 2-2 7 0 8 3v10c-1 4-1 9 1 12a5 5 0 007 1c3-2 2-5 2-8 0-4 2-8 6-7a6 6 0 014 4 8 8 0 002 3 2 2 0 004-2v-7a4 4 0 015-3c3 1 3 5 3 8v7a4 4 0 000 1c2 2 6 0 5-3a10 10 0 010-6 5 5 0 014-3c3-1 5 2 4 5l-2 6-5 13c0 5 2 11 8 12 4 1 8-1 9-5 1-3-2-6-4-10a19 19 0 014-20 7 7 0 016-2c5 1 5 6 5 10-1 4-2 7-1 11s7 5 9 1c0-3 0-6 2-9s7-6 10-2a7 7 0 012 5c0 5-3 8-4 13-1 4-1 9 3 11a7 7 0 007-1c5-3 5-9 4-13-2-5-5-9-4-14a9 9 0 0110-7c5 0 10 5 10 10v2a37 37 0 01-4 15c-2 4-2 10 2 14 3 3 8 5 12 3a8 8 0 005-5c2-6-4-11-6-17a12 12 0 011-12c6-7 16-3 18 5 1 4-1 8-1 12s2 10 7 9a7 7 0 006-5c2-8-6-14-6-22a8 8 0 012-6c5-4 11-1 16 2s9 8 15 6c3-1 5-4 7-7 2-4 3-8 7-11a7 7 0 016-1c4 2 4 7 3 11l-3 9c0 4 2 8 6 7a6 6 0 004-4c1-5-2-9-2-14 0-4 5-8 8-5a6 6 0 012 4v30c0 6 7 9 11 5h1c3-3 4-8 3-12l-4-12c-2-4-4-9-3-13 1-6 9-11 13-3a10 10 0 010 7c-1 4 0 12 5 13a6 6 0 006-3c2-5 1-9 2-14 1-3 4-6 7-6 4 1 7 5 8 9l1 13c2 5 7 9 12 5a7 7 0 002-4c1-5-1-9-2-14-1-3 0-7 3-9l3 9c2 4 7 6 11 2a8 8 0 002-3c1-4 0-7-1-11a18 18 0 0115 0c3 1 4 3 7 3a16 16 0 005 0l6-3a18 18 0 0115 0c-1 4-2 7 0 11a8 8 0 001 3c4 4 9 2 12-2l2-9c3 2 4 6 4 9-1 5-3 9-3 14a7 7 0 003 4c4 4 10 0 11-5l2-13c1-5 3-8 8-9 3 0 6 3 7 6 1 5 0 9 2 14a6 6 0 005 3c6-1 6-9 5-13a10 10 0 011-7c3-8 11-3 12 3 1 4-1 9-3 13l-4 12c-1 4 1 9 4 12 4 4 12 1 12-5s-2-18 0-30a6 6 0 011-4c4-3 8 1 8 5 1 5-2 9-1 14a6 6 0 003 4c4 1 7-3 7-7l-3-9c-2-4-1-9 3-10a7 7 0 016 0c4 3 5 7 7 11 1 3 4 6 7 7 5 2 10-2 15-5s11-7 15-3a8 8 0 013 6c0 8-8 14-6 22a7 7 0 006 6c5 0 7-6 6-10V41c1-7 12-12 17-5a13 13 0 012 12c-3 6-8 12-6 17a8 8 0 005 5c4 2 8 0 11-3 4-4 4-9 2-14a37 37 0 01-3-15v-2c0-5 5-10 9-10a9 9 0 0110 7c1 5-2 9-3 14s-1 10 3 13a7 7 0 008 1c4-2 4-7 3-11-2-5-5-8-5-13a7 7 0 012-5c4-4 9-1 11 2l2 10c1 3 7 1 8-2s0-7 0-11c-1-4 0-9 4-10a7 7 0 017 2 19 19 0 013 20c-1 4-4 7-3 10 1 5 5 7 9 5 5-1 8-7 7-12 0-4-2-9-4-13l-3-6c0-2 1-6 5-5a5 5 0 014 3 10 10 0 010 6c-1 3 3 5 5 3a4 4 0 000-1v-7c-1-3 0-7 3-7a4 4 0 014 2c2 2 1 5 1 7a2 2 0 003 2 8 8 0 003-3 6 6 0 013-4c5-1 6 3 6 7 0 3 0 7 2 8a5 5 0 007-1c3-3 2-8 2-12-1-3-2-6 0-10s5-5 8-3c-1 4-2 9 0 13a7 7 0 007 4c6-1 7-8 10-13s9-9 15-9 13 4 16 9c2 5 4 12 9 13a7 7 0 007-4c2-4 1-9 0-13 3-2 7 0 9 3s0 7 0 10c-1 4-2 9 1 12a5 5 0 007 1c3-1 2-5 2-8 0-4 2-8 6-7a6 6 0 013 4 8 8 0 003 3 2 2 0 004-2v-7a4 4 0 015-2c3 0 3 4 3 7v7a2 2 0 000 1c2 2 6 0 5-3a10 10 0 010-6 5 5 0 014-3c3-1 5 3 4 5l-2 6c-2 4-5 9-5 13 0 5 2 11 7 12 4 2 9 0 10-5 0-3-2-6-4-10a19 19 0 013-20 7 7 0 017-2c4 1 5 6 4 10v11c1 4 7 5 9 2 0-4 0-7 2-10s7-6 10-2a7 7 0 012 5c0 5-3 8-4 13-2 4-2 9 2 11a7 7 0 008-1c4-3 5-8 3-13-1-5-4-9-3-14a9 9 0 0110-7c5 0 10 5 9 10v2a37 37 0 01-3 15c-2 4-2 10 2 14 3 3 7 5 12 3a8 8 0 005-5c2-6-4-11-7-17a13 13 0 012-12c6-7 16-2 18 5 1 4-1 8-1 12s2 10 6 10a7 7 0 006-6c2-8-5-14-5-22a8 8 0 012-6c5-4 11-1 16 2 4 4 9 8 14 6 4-1 6-4 7-7 2-4 4-8 8-11a7 7 0 016 0c4 1 4 6 3 10l-3 9c-1 4 2 8 6 7a6 6 0 004-4c1-5-2-9-2-14 0-4 5-8 8-5a6 6 0 012 4v30c0 6 7 9 11 5 3-3 4-8 4-12s-2-8-4-12-4-9-3-13c1-6 9-11 13-3a10 10 0 010 7c-1 4 0 12 5 13a6 6 0 005-3c3-5 1-9 3-14 0-3 4-6 7-6 4 1 7 5 8 9l1 13c2 5 7 9 11 5a7 7 0 003-4c1-5-2-9-2-14-1-3 0-8 3-9l3 9c2 4 7 6 11 2a8 8 0 002-3c1-4 0-7-1-11a18 18 0 0115 0c2 1 4 3 7 3a8 8 0 002 1 8 8 0 003-1l6-3a18 18 0 0115 0c-1 4-2 7-1 11a8 8 0 002 3c4 4 9 2 12-2l2-9c3 1 4 6 4 9-1 5-4 9-3 14a7 7 0 003 4 6 6 0 001 1 6 6 0 005 0 10 10 0 005-6l2-13c1-5 3-8 7-9s7 3 8 6c1 5-1 9 2 14a6 6 0 005 3c5-1 6-9 5-13a10 10 0 010-7c4-8 12-3 13 3 1 4-1 9-3 13a50 50 0 00-3 9 24 24 0 00-1 3c0 4 1 9 4 12 4 4 11 1 11-5V46a105 105 0 010-20 6 6 0 012-4c4-3 8 1 8 5 0 5-3 9-2 14a6 6 0 004 4c4 1 7-3 7-7l-4-9c-1-4-1-9 4-11a7 7 0 016 1l7 11c1 3 3 6 7 7 5 2 10-2 14-6 4-2 8-4 11-4V0z"/>
</svg>