<svg preserveAspectRatio="none" xmlns="http://www.w3.org/2000/svg" viewBox="0 0 1000 100">
    <path opacity=".5" d="M0 86.9V74.7l220.7-19.3L0 29.2V17.9l250 38-250 31z" />
    <path opacity=".5" d="M0 74.7v-8.8l145.2-12.7L0 36v-6.8l220.7 26.2L0 74.7z" />
    <path opacity=".5" d="M0 74.7v-8.8l145.2-12.7L0 36v-6.8l220.7 26.2L0 74.7z" />
    <path opacity=".5" d="M0 65.9V36l145.2 17.2L0 65.9z" />
    <path opacity=".5" d="M0 65.9V36l145.2 17.2L0 65.9z" />
    <path opacity=".75" d="M0 65.9V36l145.2 17.2L0 65.9z" />
    <path opacity=".5" d="M750 55.9l250-38v12.3L779.3 56.4 1000 75.7v11.2l-250-31zM500 18L250 56l250 31 250-31zM279.3 56.3L500 30.2l220.7 26.2L500 75.7z" />
    <path d="M500 17.9l-250 38-250-38v-18h1000v18l-250 38-250-38z" />
    <path opacity=".5" d="M500 30.2L279.3 56.4 500 75.7l220.7-19.3zM335.4 55.5L500 36l164.6 19.5L500 70z" />
    <path opacity=".5" d="M500 30.2L279.3 56.4 500 75.7l220.7-19.3zM335.4 55.5L500 36l164.6 19.5L500 70z" />
    <path opacity=".5" d="M664.6 55.5L500 69.9 335.4 55.5 500 36l164.6 19.5z" />
    <path opacity=".5" d="M664.6 55.5L500 69.9 335.4 55.5 500 36l164.6 19.5z" />
    <path opacity=".75" d="M664.6 55.5L500 69.9 335.4 55.5 500 36l164.6 19.5z" />
    <path opacity=".5" d="M1000 30.2V36L854.9 53.2 1000 65.9v9.8L779.3 56.4 1000 30.2z" />
    <path opacity=".5" d="M1000 30.2V36L854.9 53.2 1000 65.9v9.8L779.3 56.4 1000 30.2z" />
    <path opacity=".5" d="M1000 36v29.9L854.9 53.2 1000 36z" />
    <path opacity=".5" d="M1000 36v29.9L854.9 53.2 1000 36z" />
    <path opacity=".75" d="M1000 36v29.9L854.9 53.2 1000 36z" /> 
</svg>