<svg xmlns="http://www.w3.org/2000/svg" viewBox="0 0 524.67 392.99">
    <path fill="#a0616a" d="m146.06 297.5-29.61 3.22-14.17-9.66-8.2 9.66 3.94 20.38 4.5 16.09 27.33-13.88 22.01-1.99-5.8-23.82z"/>
    <path fill="#2f2e41" d="m296.09 263.37-71.47-1.29-86.93 36.7 11.59 25.12 78.56-21.9 121.69 34.77-16.74-82.41-36.7 9.01zM100.05 299.84l14.21-1.11-18.07-38.17s-8.37-2.96-9.66 6.25c-1.29 9.2 9.7 71.53 12.92 71.53s14.02-6.3 14.02-6.3l-15.99-30.27 2.58-1.93h-.01Z"/>
    <path fill="#f2f2f2" d="M456.35 289.39c-1.43.15-2.99.38-4.65.72-7.04 1.43-7.18 6.2-7.12 7.3l-.05-.03a11.49 11.49 0 0 0-1.42 3.37l-.32-14.64c.21-.43.4-.93.56-1.43.53 1.62 1.39 3.15 2.13 3.05.97-.13 1.39-2.98 1.21-5 1.23 1.58 3.3 3.28 4.08 2.76.62-.42.25-2.14-.43-3.7 1.42.86 2.99 1.42 3.48.87.67-.74-.93-3.27-2.4-4.68 1.97.18 4.48-.13 4.64-1.03.14-.74-1.36-1.67-2.95-2.27 1.6-.42 3.1-1.16 3.05-1.9-.06-.86-2.28-1.44-4.2-1.52 1.45-1.13 2.78-2.7 2.37-3.41-.37-.65-2.11-.4-3.72.17.95-1.36 1.62-2.9 1.11-3.41-.63-.65-2.88.47-4.42 1.72.3-1.94.15-4.4-.72-4.61-.73-.2-1.76 1.24-2.47 2.79-.31-1.63-.95-3.17-1.68-3.17-1.04 0-1.88 3.14-1.88 5.18v.33c-.1-.12-.22-.25-.36-.38-1.47-1.42-4.3-3-5.03-2.26-.51.52.16 2.05 1.11 3.4-1.61-.56-3.35-.82-3.72-.16-.5.88 1.65 3.06 3.39 4.12l-.33-.03c-2.04-.14-5.23.49-5.3 1.53-.05.73 1.45 1.47 3.05 1.89-1.6.6-3.09 1.53-2.95 2.27.16.9 2.67 1.2 4.64 1.03-1.47 1.4-3.07 3.94-2.4 4.68.49.54 2.06-.02 3.48-.87-.68 1.56-1.05 3.28-.43 3.7.82.55 3.09-1.37 4.28-3.02-.12 2.02.36 4.8 1.32 4.9.4.06.83-.37 1.21-1.03l-1.09 15.74c-.25 1.83 1.37 3.03 1.52 3.78l.23 10.66c-.26-.76-.62-1.54-1.1-2.31l-.05.03c.06-1.1-.08-5.87-7.12-7.3a48.32 48.32 0 0 0-4.65-.72c-1.69-.18-2.35 2.13-.82 2.88 2.21 1.08 4.29 2.44 5.37 4.05 2.77 4.12 6.59 1.74 7.14 1.37a11.2 11.2 0 0 1 1.26 3l.12 5.66-.05.2.06.03.3 13.7 2.8-.02-1-14c.17-.76.69-3.33 0-6l-1-11s.06.29 0 0l-1.3-4.32c.19-1.34.63-2.84 1.52-4.33.54.37 4.37 2.75 7.14-1.37 1.08-1.61 3.16-2.97 5.37-4.05 1.52-.75.87-3.06-.82-2.88v-.03h.01Zm-12.76 32.4-.05-2.4c.11.92.1 1.73.05 2.4Z"/>
    <!-- <path fill="#3f3d56" d="M0 337.1c0 .67.53 1.2 1.19 1.2h522.29c.66 0 1.19-.53 1.19-1.2s-.53-1.18-1.19-1.18H1.19c-.66 0-1.19.53-1.19 1.19Z"/> -->
    <path fill="#a0616a" d="m346.55 177.51 7.09-23.82 20.6-.65 8.37 29.62-36.06-5.15z"/>
    <path d="m346.55 177.51 7.09-23.82 20.6-.65 8.37 29.62-36.06-5.15z" opacity=".1"/>
    <path fill="#e6e6e6" d="m378.18 174.19-33.48-1.3-10.38 21.36-16.02 94.55 84.03 18.99s5.15-105.6-6.44-120.41-17.71-13.2-17.71-13.2Z"/>
    <path fill="#a0616a" d="M280.12 100.15c-1.4-7.45-6.37-12.78-11.12-11.9s-7.46 7.66-6.06 15.12a19 19 0 0 0 3.57 8.22l6.31 31.5 12.45-2.52-5.52-31.46a19 19 0 0 0 .35-8.96h.02Z"/>
    <path fill="#e6e6e6" d="m373.17 182.77-68.38-13.47-19.22-57.8-21.53 5.1 21.6 85.38 77.4 10.18 10.13-29.39z"/>
    <path fill="#3858e9" d="m269.03 7.57-.2.2a26.77 26.77 0 0 0-38.3 37.39l.25.26 37.05 38.15 38.41-37.3-.11-.11.2-.18a26.76 26.76 0 1 0-37.3-38.4s0-.01 0-.01ZM278.19 196.77l-.36.37A49.3 49.3 0 0 0 207.3 266l.46.49L276 336.75l70.73-68.7-.2-.2.36-.33a49.3 49.3 0 0 0-68.7-70.74h.01-.01v-.01Z"/>
    <path fill="#2f2e41" d="M382.52 275.08s25.27 21.05 15.89 33.82c-9.37 12.77-41.25 35.63-55.65 28.54s-44.29-58.33-44.29-58.33l-7.82 52.49-20.46-1.81s-14.86-74.14-1.16-85.51c13.71-11.37 76.11 8.73 76.11 8.73l37.37 22.08.01-.01Z"/>
    <path fill="#a0616a" d="m275.3 322.82-5.86 18.21-12.21 17.11 9.36 14.01 29.75-19.59-.1-10.08-4.67-6.29-3.3-12.06-12.97-1.31z"/>
    <path fill="#2f2e41" d="m265.94 365.25-7.47-12.14-25.72 33.49s1.19 8.8 9.97 5.74 63.21-30.96 61.74-33.83-7.5-18.3-7.5-18.3l-28.12 26.44-2.89-1.41h-.01Z"/>
    <path fill="#a0616a" d="M281.73 274.9c-7.55.76-13.28 5.26-12.8 10.06s6.98 8.09 14.53 7.34a19.1 19.1 0 0 0 8.5-2.85l31.93-3.57-1.45-12.62-31.82 2.79a18.97 18.97 0 0 0-8.89-1.13v-.01Z"/>
    <path fill="#e6e6e6" d="m372.07 189.33-19.32 66.96-59.24 14.16 3.22 21.9 86.93-14.17 16.81-76.23-28.4-12.62z"/>
    <circle fill="#a0616a" cx="361.32" cy="133.46" r="27.36"/>
    <path fill="#2f2e41" d="M363.5 96.67c-.79.46-1.85-.24-2.11-1.12-.25-.88.04-1.82.34-2.68l1.48-4.37c1.05-3.1 2.16-6.31 4.43-8.67 3.42-3.56 8.86-4.47 13.76-3.81 6.29.84 12.49 4.25 15.42 9.88 2.92 5.63 1.68 13.49-3.6 17 7.53 8.63 10.15 18.25 9.74 29.69-.41 11.45-12.89 21.98-21.02 30.04-1.82-1.1-3.47-6.26-2.47-8.14 1-1.87-.43-4.05.8-5.77s2.27 1.02 1.02-.7c-.79-1.07 2.29-3.57 1.12-4.21-5.67-3.14-7.56-10.21-11.13-15.63a26.63 26.63 0 0 0-19.44-11.7c-4.29-.4-8.82.34-12.33 2.83-3.52 2.49-5.79 6.94-4.98 11.17a10.1 10.1 0 0 1-2.77-8.27 10.1 10.1 0 0 1 4.83-7.26c-1.58-5.22-.23-11.23 3.44-15.27s18.54-3.35 23.89-2.3l-.41-.7-.01-.01Z"/>
    <path fill="#2f2e41" d="M364.34 116.64c7.09.77 12.21 6.9 16.53 12.58 2.49 3.27 5.1 6.88 5.04 10.99-.06 4.15-2.84 7.72-4.17 11.66a17.55 17.55 0 0 0 5.11 18.5c-5.1.97-10.62-2.86-11.5-7.98-1.03-5.96 3.49-11.71 2.96-17.74-.47-5.31-4.65-9.4-8.21-13.36s-6.89-9.23-5.26-14.3l-.5-.34v-.01Z"/>
</svg>