<svg xmlns="http://www.w3.org/2000/svg" width="512" height="512" viewBox="0 0 60 60">
  <g fill="#000" fill-rule="nonzero">
    <path d="M27 34.5a1 1 0 002 0c0-3.3-3.06-6.04-7-6.44V27a1 1 0 00-2 0v1.06c-3.94.4-7 3.13-7 6.44s3.06 6.04 7 6.44v9c-2.83-.37-5-2.21-5-4.44a1 1 0 00-2 0c0 3.3 3.06 6.04 7 6.44V53a1 1 0 002 0v-1.06c3.94-.4 7-3.13 7-6.44s-3.06-6.04-7-6.44v-9c2.83.37 5 2.21 5 4.44zm-12 0c0-2.23 2.17-4.07 5-4.43v8.86c-2.83-.36-5-2.2-5-4.43zm12 11c0 2.23-2.17 4.07-5 4.43v-8.86c2.83.36 5 2.2 5 4.43z"/>
    <path d="M3.6 30.17a1 1 0 00-1.33.49A24.4 24.4 0 000 41c0 12.6 7.07 19 21 19 2.82.04 5.63-.28 8.36-.96a1 1 0 00-.52-1.94c-2.56.64-5.2.94-7.84.9C8.21 58 2 52.44 2 41c-.02-3.28.7-6.53 2.09-9.5a1 1 0 00-.49-1.33zM57 25H35a3 3 0 00-3 3v29a3 3 0 003 3h22a3 3 0 003-3V28a3 3 0 00-3-3zm1 32a1 1 0 01-1 1H35a1 1 0 01-1-1V28a1 1 0 011-1h22a1 1 0 011 1z"/>
    <path d="M39 38h14a2 2 0 002-2v-4a2 2 0 00-2-2H39a2 2 0 00-2 2v4c0 1.1.9 2 2 2zm0-6h14v4H39zM41 41h-3a1 1 0 000 2h3a1 1 0 000-2zM41 45h-3a1 1 0 000 2h3a1 1 0 000-2zM41 49h-3a1 1 0 000 2h3a1 1 0 000-2zM41 53h-3a1 1 0 000 2h3a1 1 0 000-2zM48 41h-3a1 1 0 000 2h3a1 1 0 000-2zM48 45h-3a1 1 0 000 2h3a1 1 0 000-2zM48 49h-3a1 1 0 000 2h3a1 1 0 000-2zM48 53h-3a1 1 0 000 2h3a1 1 0 000-2zM55 41h-3a1 1 0 000 2h3a1 1 0 000-2zM55 45h-3a1 1 0 000 2h3a1 1 0 000-2zM55 49h-3a1 1 0 000 2h3a1 1 0 000-2zM55 53h-3a1 1 0 000 2h3a1 1 0 000-2zM6.33 1.26C3.69 3.68 8.31 11.12 11.04 15h-.54a3.48 3.48 0 00-1.75 6.52 47.1 47.1 0 00-3.29 3.88 1 1 0 001.6 1.2 48.32 48.32 0 014-4.6H31.5a3.5 3.5 0 100-7h-.54c2.72-3.88 7.35-11.32 4.72-13.74-1.21-1.1-2.62-.3-3.87.41A7.71 7.71 0 0128 3a3.87 3.87 0 01-2.85-1.26 5.82 5.82 0 00-8.3 0A3.87 3.87 0 0113.99 3a7.68 7.68 0 01-3.8-1.33C8.93.97 7.52.16 6.32 1.27zm26.23 16.18A1.5 1.5 0 0131.5 20h-21a1.5 1.5 0 010-3h21c.4 0 .78.16 1.06.44zM14 5c1.56 0 3.06-.63 4.15-1.74a3.85 3.85 0 015.7 0A5.82 5.82 0 0028 5a9.58 9.58 0 004.8-1.6c.47-.32.98-.54 1.53-.66 1.02.94-1.69 6.6-5.83 12.26H26v-5a1 1 0 00-2 0v5h-6v-5a1 1 0 00-2 0v5h-2.5C9.37 9.35 6.66 3.68 7.7 2.72c.53.14 1.04.38 1.5.69A9.56 9.56 0 0013.99 5z"/>
  </g>
</svg>