<svg height="512" viewBox="0 0 60 60" width="512" xmlns="http://www.w3.org/2000/svg"><g id="Page-1" fill="none" fill-rule="evenodd"><g id="083---Money-Bag" fill="rgb(0,0,0)" fill-rule="nonzero"><path id="Shape" d="m27 34.5c0 .5522847.4477153 1 1 1s1-.4477153 1-1c0-3.308-3.06-6.042-7-6.444v-1.056c0-.5522847-.4477153-1-1-1s-1 .4477153-1 1v1.056c-3.94.4-7 3.136-7 6.444s3.06 6.042 7 6.444v8.988c-2.833-.358-5-2.207-5-4.432 0-.5522847-.4477153-1-1-1s-1 .4477153-1 1c0 3.308 3.06 6.042 7 6.444v1.056c0 .5522847.4477153 1 1 1s1-.4477153 1-1v-1.056c3.94-.4 7-3.136 7-6.444s-3.06-6.042-7-6.444v-8.988c2.833.358 5 2.207 5 4.432zm-12 0c0-2.225 2.167-4.074 5-4.432v8.864c-2.833-.358-5-2.207-5-4.432zm12 11c0 2.225-2.167 4.074-5 4.432v-8.864c2.833.358 5 2.207 5 4.432z"/><path id="Shape" d="m3.6 30.173c-.50092364-.232479-1.09546587-.0148981-1.328.486-1.5050802 3.2391608-2.28067026 6.7692562-2.272 10.341 0 12.607 7.065 19 21 19 2.8157147.0442533 5.625148-.2794853 8.357-.963.5337832-.1419372.8514371-.6897168.7095-1.2235-.1419372-.5337832-.6897168-.8514371-1.2235-.7095-2.5651413.6334934-5.2010742.9346277-7.843.896-12.785 0-19-5.561-19-17-.01799209-3.2823093.69491672-6.527462 2.087-9.5.23167576-.5009339.01371332-1.094848-.487-1.327z"/><path id="Shape" d="m57 25h-22c-1.6568542 0-3 1.3431458-3 3v29c0 1.6568542 1.3431458 3 3 3h22c1.6568542 0 3-1.3431458 3-3v-29c0-1.6568542-1.3431458-3-3-3zm1 32c0 .5522847-.4477153 1-1 1h-22c-.5522847 0-1-.4477153-1-1v-29c0-.5522847.4477153-1 1-1h22c.5522847 0 1 .4477153 1 1z"/><path id="Shape" d="m39 38h14c1.1045695 0 2-.8954305 2-2v-4c0-1.1045695-.8954305-2-2-2h-14c-1.1045695 0-2 .8954305-2 2v4c0 1.1045695.8954305 2 2 2zm0-6h14v4h-14z"/><path id="Shape" d="m41 41h-3c-.5522847 0-1 .4477153-1 1s.4477153 1 1 1h3c.5522847 0 1-.4477153 1-1s-.4477153-1-1-1z"/><path id="Shape" d="m41 45h-3c-.5522847 0-1 .4477153-1 1s.4477153 1 1 1h3c.5522847 0 1-.4477153 1-1s-.4477153-1-1-1z"/><path id="Shape" d="m41 49h-3c-.5522847 0-1 .4477153-1 1s.4477153 1 1 1h3c.5522847 0 1-.4477153 1-1s-.4477153-1-1-1z"/><path id="Shape" d="m41 53h-3c-.5522847 0-1 .4477153-1 1s.4477153 1 1 1h3c.5522847 0 1-.4477153 1-1s-.4477153-1-1-1z"/><path id="Shape" d="m48 41h-3c-.5522847 0-1 .4477153-1 1s.4477153 1 1 1h3c.5522847 0 1-.4477153 1-1s-.4477153-1-1-1z"/><path id="Shape" d="m48 45h-3c-.5522847 0-1 .4477153-1 1s.4477153 1 1 1h3c.5522847 0 1-.4477153 1-1s-.4477153-1-1-1z"/><path id="Shape" d="m48 49h-3c-.5522847 0-1 .4477153-1 1s.4477153 1 1 1h3c.5522847 0 1-.4477153 1-1s-.4477153-1-1-1z"/><path id="Shape" d="m48 53h-3c-.5522847 0-1 .4477153-1 1s.4477153 1 1 1h3c.5522847 0 1-.4477153 1-1s-.4477153-1-1-1z"/><path id="Shape" d="m55 41h-3c-.5522847 0-1 .4477153-1 1s.4477153 1 1 1h3c.5522847 0 1-.4477153 1-1s-.4477153-1-1-1z"/><path id="Shape" d="m55 45h-3c-.5522847 0-1 .4477153-1 1s.4477153 1 1 1h3c.5522847 0 1-.4477153 1-1s-.4477153-1-1-1z"/><path id="Shape" d="m55 49h-3c-.5522847 0-1 .4477153-1 1s.4477153 1 1 1h3c.5522847 0 1-.4477153 1-1s-.4477153-1-1-1z"/><path id="Shape" d="m55 53h-3c-.5522847 0-1 .4477153-1 1s.4477153 1 1 1h3c.5522847 0 1-.4477153 1-1s-.4477153-1-1-1z"/><path id="Shape" d="m6.325 1.263c-2.633 2.412 1.993 9.852 4.719 13.737h-.544c-.9289377-.0033847-1.82071613.3645594-2.477 1.022-.65404808.6590332-1.02166441 1.5495056-1.023 2.478.00429999 1.246115.67287021 2.3953392 1.754 3.015-1.16726953 1.2346386-2.26687698 2.5315345-3.294 3.885-.33137083.4418278-.24182778 1.0686291.20000002 1.4.44182779.3313708 1.06862912.2418278 1.39999998-.2 1.23519803-1.6159851 2.5711887-3.1523743 4-4.6h20.44c1.2504296 0 2.4058742-.6670962 3.031089-1.75s.6252148-2.4170962 0-3.5-1.7806594-1.75-3.031089-1.75h-.544c2.725-3.885 7.351-11.324 4.72-13.737-1.21-1.108-2.62-.3-3.863.407-1.1303266.77409964-2.4464379 1.2331681-3.813 1.33-1.0848335-.00229137-2.1190042-.45934329-2.851-1.26-1.094289-1.11255768-2.5894703-1.73914491-4.15-1.73914491s-3.055711.62658723-4.15 1.73914491c-.7331714.80193841-1.7694252 1.25910923-2.856 1.26-1.3658416-.09582787-2.6812414-.55500942-3.81-1.33-1.242-.709-2.651-1.514-3.858-.407zm26.238 16.175c.4302609.4291709.5590582 1.0755404.3261637 1.6368534-.2328945.5613131-.7814549.9266399-1.3891637.9251466h-21c-.82842712 0-1.5-.6715729-1.5-1.5s.67157288-1.5 1.5-1.5h21c.3982269.0001175.7802853.1575413 1.063.438zm-18.57-12.438c1.5611462-.00022096 3.0567762-.62751363 4.151-1.741.7303517-.80231155 1.7650496-1.25961838 2.85-1.25961838s2.1196483.45730683 2.85 1.25961838c1.0956967 1.11434336 2.5932102 1.74167037 4.156 1.741 1.7169875-.09020951 3.3780633-.64079278 4.809-1.594.45655-.32224884.9730545-.54972842 1.519-.669 1.026.94-1.686 6.609-5.832 12.263h-2.496v-5c0-.55228475-.4477153-1-1-1s-1 .44771525-1 1v5h-6v-5c0-.55228475-.4477153-1-1-1s-1 .44771525-1 1v5h-2.492c-4.146-5.654-6.858-11.323-5.818-12.278.53463002.14279843 1.04162028.37398599 1.5.684 1.4287716.953081 3.0878912 1.50370283 4.803 1.594z"/></g></g></svg>