<svg xmlns="http://www.w3.org/2000/svg" width="512" height="512" viewBox="0 0 511.99 511.99">
  <path d="M511 279.65a202.38 202.38 0 00-58.16-122.75 200.8 200.8 0 00-98.78-54.24v-25.4a34.06 34.06 0 0025.79-33c0-18.75-15.25-34-34-34h-72c-18.75 0-34 15.25-34 34 0 15.92 11 29.31 25.8 33v25.47a200.8 200.8 0 00-98.48 54.17 202.97 202.97 0 00-16.98 19.27c-.26-.02-.5-.04-.76-.04H78.17a10 10 0 000 20h58.4a200.47 200.47 0 00-17.73 38.44H10a10 10 0 000 20h103.18a203.32 203.32 0 00-4.96 38.44H64a10 10 0 000 20h44.54a203.02 203.02 0 006.24 38.43H50a10 10 0 000 20h71.17a200.83 200.83 0 0046 71.14 202.37 202.37 0 00122.86 58.18 202.48 202.48 0 00130.06-31.6 10 10 0 00-10.91-16.77c-71.56 46.6-167.4 36.52-227.87-23.96-70.96-70.96-70.96-186.42 0-257.38 70.96-70.96 186.42-70.96 257.38 0 60.4 60.4 70.53 156.15 24.09 227.67a10 10 0 0016.77 10.9A202.64 202.64 0 00511 279.64zM259.86 44.26c0-7.72 6.28-14 14-14h72c7.72 0 14 6.28 14 14s-6.28 14-14 14h-72c-7.72 0-14-6.28-14-14zm25.8 55.04V78.26h48.4v21a203.76 203.76 0 00-48.4.04z"/>
  <path d="M445.77 425.5a10.03 10.03 0 00-7.07 17.07 10.01 10.01 0 0017.07-7.07c0-2.63-1.07-5.21-2.93-7.07a10.1 10.1 0 00-7.07-2.93zM310 144.6c-85.54 0-155.13 69.6-155.13 155.14S224.47 454.87 310 454.87s155.13-69.6 155.13-155.13S395.53 144.6 310 144.6zm0 290.27c-74.51 0-135.13-60.62-135.13-135.13S235.5 164.6 310 164.6s135.13 60.62 135.13 135.13S384.51 434.87 310 434.87z"/>
  <path d="M373.26 222.34l-49.53 49.53a30.88 30.88 0 00-27.46 0l-22.16-22.17a10 10 0 00-14.15 14.14l22.17 22.17a30.87 30.87 0 00-3.2 13.73c0 17.13 13.94 31.07 31.07 31.07s31.07-13.94 31.07-31.07c0-4.93-1.15-9.59-3.2-13.73l48.08-48.07 1.45-1.46a10 10 0 00-14.14-14.14zM310 310.81c-6.1 0-11.07-4.97-11.07-11.07s4.96-11.08 11.07-11.08a11.08 11.08 0 010 22.15zM416.92 289.86h-9.27a10 10 0 000 20h9.27a10 10 0 000-20zM212.35 289.62h-9.27a10 10 0 000 20h9.27a10 10 0 000-20zM310.12 212.08a10 10 0 0010-10v-9.26a10 10 0 00-20 0v9.26a10 10 0 0010 10zM309.88 387.4a10 10 0 00-10 10v9.26a10 10 0 0020 0v-9.27a10 10 0 00-10-10zM10 351.44c-2.63 0-5.21 1.07-7.07 2.93A10.08 10.08 0 000 361.44c0 2.64 1.07 5.21 2.93 7.07s4.44 2.93 7.07 2.93 5.21-1.07 7.07-2.93c1.86-1.86 2.93-4.44 2.93-7.07s-1.07-5.21-2.93-7.07a10.07 10.07 0 00-7.07-2.93z"/>
</svg>