<svg xmlns="http://www.w3.org/2000/svg" width="430pt" height="430pt" viewBox="0 -67 430.08 430">
  <path d="M428.97 179.44l-21.77-33.3a51.95 51.95 0 00-43.7-23.51h-56.3v-32.4a35.9 35.9 0 00-35.87-35.87h-105.4C160.04 23.47 132.84.04 100.26.04a66.99 66.99 0 00-66.91 66.91 66.89 66.89 0 0029.86 55.67H6.83a6.83 6.83 0 100 13.66h68.26v13.65H47.8a6.82 6.82 0 000 13.66h27.3v13.65H6.83a6.83 6.83 0 100 13.65h68.26v30.24a34.24 34.24 0 00-20.48 31.3v6.73a6.83 6.83 0 006.83 6.83H122a37.78 37.78 0 0036.73 29.2 37.78 37.78 0 0036.73-29.2h131.34a37.79 37.79 0 0036.73 29.2 37.79 37.79 0 0036.73-29.2h23a6.82 6.82 0 006.83-6.83v-75.98c0-1.33-.39-2.63-1.11-3.74zM46.99 66.95a53.32 53.32 0 0153.26-53.26c29.37 0 53.26 23.9 53.26 53.26s-23.89 53.26-53.26 53.26a53.32 53.32 0 01-53.26-53.26zM88.75 190.9h13.65a6.83 6.83 0 100-13.65H88.75v-13.65h47.79a6.82 6.82 0 100-13.66h-47.8v-13.65h88.75a6.83 6.83 0 100-13.66H137.3a66.88 66.88 0 0029.81-54.6h104.23a22.24 22.24 0 0122.2 22.2V218.2H88.75zm204.8 61.44h-97.48a37.58 37.58 0 00-9.7-20.48h107.18zM88.83 231.85h42.24a37.58 37.58 0 00-9.7 20.48h-53.1a20.6 20.6 0 0120.56-20.48zm69.89 49.69a24.12 24.12 0 01-24.09-24.09 24.12 24.12 0 0124.09-24.08 24.12 24.12 0 0124.08 24.08 24.11 24.11 0 01-24.08 24.09zm204.8 0a24.12 24.12 0 01-24.09-24.09 24.12 24.12 0 0124.09-24.08 24.12 24.12 0 0124.09 24.08 24.11 24.11 0 01-24.09 24.09zm52.9-29.2h-15.55a37.77 37.77 0 00-37.35-32.63 37.77 37.77 0 00-37.35 32.62H307.2V136.28h56.3a38.36 38.36 0 0132.27 17.32l20.66 31.6zm0 0"/>
  <path d="M374.69 257.45a11.17 11.17 0 11-22.34 0 11.17 11.17 0 0122.34 0zm0 0M169.89 257.45a11.17 11.17 0 11-22.34 0 11.17 11.17 0 0122.34 0zm0 0M109.23 66.95V37.1a6.82 6.82 0 10-13.66 0v27.64L81.64 83.84a6.82 6.82 0 1011.03 8.04l15.25-20.9a6.83 6.83 0 001.3-4.03zm0 0M361.22 143.1h-13.06a6.83 6.83 0 00-6.83 6.83v47.79a6.83 6.83 0 006.83 6.83h45.95c4.28 0 8.1-2.22 10.26-5.92 2.15-3.7 2.15-8.13.03-11.82l-15.94-27.9a31.45 31.45 0 00-27.24-15.8zm-6.23 47.8v-34.14h6.23c6.35 0 12.24 3.42 15.39 8.93l14.4 25.2zm0 0"/>
</svg>